<svg xmlns="http://www.w3.org/2000/svg" viewBox="0 0 128 128" fill="none">
  <path fill="#FC6D26" d="M64 120 88 46H40l24 74Z"/>
  <path fill="#E24329" d="M64 120 40 46H6l58 74Z"/>
  <path fill="#FC6D26" d="M6 46 0 64a8 8 0 0 0 3 9l61 47L6 46Z"/>
  <path fill="#E24329" d="M6 46h34L26 8a4 4 0 0 0-8 .4L6 46Z"/>
  <path fill="#FC6D26" d="M64 120 88 46h34l-58 74Z"/>
  <path fill="#FCA326" d="M122 46l6 18a8 8 0 0 1-3 9l-61 47 58-74Z"/>
  <path fill="#E24329" d="M122 46H88l14-38a4 4 0 0 1 8 .4l12 37.6Z"/>
</svg>
